<svg width="30" height="34" viewBox="0 0 30 34" fill="none" xmlns="http://www.w3.org/2000/svg">
<path d="M13.8658 31.6076C14.2255 31.813 14.4054 31.9157 14.6592 31.969C14.8564 32.0103 15.1436 32.0103 15.3408 31.969C15.5946 31.9157 15.7745 31.813 16.1342 31.6076C19.2997 29.8 28 24.1218 28 16.3148V7.72592C28 6.83851 28 6.3948 27.8255 6.05662C27.6708 5.75681 27.4291 5.5175 27.1246 5.36253C26.7813 5.18773 26.3202 5.1824 25.3981 5.17173C20.5692 5.11584 17.7846 4.72555 15 2C12.2154 4.72555 9.43078 5.11584 4.60195 5.17173C3.67981 5.1824 3.21873 5.18773 2.87531 5.36253C2.57085 5.5175 2.32921 5.75681 2.17451 6.05662C2 6.3948 2 6.83851 2 7.72592V16.3148C2 24.1218 10.7002 29.8 13.8658 31.6076Z" stroke="#1A6B51" stroke-width="3" stroke-linecap="round" stroke-linejoin="round"/>
<path fill-rule="evenodd" clip-rule="evenodd" d="M15.5 9C20.1944 9 24 12.3579 24 16.5C24 20.6421 20.1944 24 15.5 24C10.8056 24 7 20.6421 7 16.5C7 12.3579 10.8056 9 15.5 9ZM15.5 10.875C11.9792 10.875 9.125 13.3934 9.125 16.5C9.125 19.6066 11.9792 22.125 15.5 22.125C19.0208 22.125 21.875 19.6066 21.875 16.5C21.875 13.3934 19.0208 10.875 15.5 10.875ZM16.5625 12.75L16.5625 15.5625H19.75V17.4375L16.5625 17.4375L16.5625 20.25H14.4375V17.4375L11.25 17.4375V15.5625H14.4375V12.75H16.5625Z" fill="#46C556"/>
</svg>
