<svg width="34" height="36" viewBox="0 0 34 36" fill="none" xmlns="http://www.w3.org/2000/svg">
<path d="M4.25 13.5H29.75M9.91667 4.5V7.5M24.0833 4.5V7.5M9.91667 19.5H24.0833V25.5H9.91667V19.5ZM8.78333 31.5H25.2167C26.8035 31.5 27.597 31.5 28.203 31.173C28.7361 30.8854 29.1696 30.4265 29.4412 29.862C29.75 29.2203 29.75 28.3801 29.75 26.7V12.3C29.75 10.6198 29.75 9.77976 29.4412 9.13803C29.1696 8.57354 28.7361 8.11459 28.203 7.82698C27.597 7.5 26.8035 7.5 25.2167 7.5H8.78333C7.19652 7.5 6.40311 7.5 5.79703 7.82698C5.26389 8.11459 4.83045 8.57354 4.55882 9.13803C4.25 9.77976 4.25 10.6198 4.25 12.3V26.7C4.25 28.3801 4.25 29.2203 4.55882 29.862C4.83045 30.4265 5.26389 30.8854 5.79703 31.173C6.40311 31.5 7.19651 31.5 8.78333 31.5Z" stroke="#1A6B51" stroke-width="3" stroke-linecap="round" stroke-linejoin="round"/>
</svg>
