<svg width="28" height="28" viewBox="0 0 28 28" fill="none" xmlns="http://www.w3.org/2000/svg">
<path d="M19.8333 15.1667V23.3333C19.8333 23.6428 19.7104 23.9395 19.4916 24.1583C19.2728 24.3771 18.9761 24.5 18.6667 24.5H4.66667C4.35725 24.5 4.0605 24.3771 3.84171 24.1583C3.62292 23.9395 3.5 23.6428 3.5 23.3333V4.66667C3.5 4.35725 3.62292 4.0605 3.84171 3.84171C4.0605 3.62292 4.35725 3.5 4.66667 3.5H18.6667C18.9761 3.5 19.2728 3.62292 19.4916 3.84171C19.7104 4.0605 19.8333 4.35725 19.8333 4.66667V8.16667" stroke="black" stroke-width="2" stroke-linecap="round" stroke-linejoin="round"/>
<path d="M8.16699 19.8334H11.667M24.162 8.97172L22.5287 7.33838C22.3106 7.12462 22.0174 7.00488 21.712 7.00488C21.4066 7.00488 21.1134 7.12462 20.8953 7.33838L15.167 13.0667V16.3334H18.4337L24.162 10.605C24.3758 10.387 24.4955 10.0938 24.4955 9.78838C24.4955 9.48301 24.3758 9.1898 24.162 8.97172Z" stroke="#46C556" stroke-width="2" stroke-linecap="round" stroke-linejoin="round"/>
</svg>
