<svg width="45" height="39" viewBox="0 0 45 39" fill="none" xmlns="http://www.w3.org/2000/svg">
<path d="M33.5327 4.99436L22.5 0L11.465 4.99505L2.34607 2.82262V5.11448C2.34607 5.11448 2.34607 15.2452 2.34607 22.5812C2.34607 23.7418 2.62556 24.8697 3.09006 25.9354C3.90797 27.8021 5.27792 29.4969 6.89415 31.0287C9.3245 33.3218 12.3294 35.2535 15.1242 36.6556C16.5233 37.3557 17.8679 37.9206 19.0913 38.3252C19.7038 38.5278 20.2864 38.6902 20.8453 38.8075C21.4066 38.9228 21.9395 38.9986 22.5001 38.9999C23.3496 38.9944 24.1558 38.8321 25.0532 38.5865C26.6089 38.1512 28.3976 37.4184 30.2775 36.4515C33.0888 34.9989 36.0758 33.0271 38.4486 30.6978C39.6334 29.5317 40.6655 28.2729 41.4213 26.9192C42.1747 25.5669 42.6533 24.1061 42.654 22.5812C42.654 18.9132 42.654 14.5465 42.654 11.0967C42.654 9.37188 42.654 7.87625 42.654 6.8119C42.654 5.74755 42.654 5.1157 42.654 5.1157V2.82262L33.5327 4.99436ZM38.6232 22.5812C38.6232 23.254 38.4618 23.9609 38.1391 24.7004C37.5793 25.9927 36.511 27.3695 35.1341 28.6687C33.0747 30.62 30.342 32.3913 27.8606 33.6303C26.6215 34.2511 25.4436 34.7411 24.473 35.0611C23.9888 35.2214 23.5566 35.3388 23.2095 35.4112C22.8647 35.4849 22.6009 35.5081 22.5001 35.5067C22.3419 35.5122 21.8254 35.4453 21.18 35.261C20.0352 34.9438 18.4489 34.3099 16.7839 33.4496C14.2796 32.1614 11.5705 30.3554 9.57648 28.389C8.57743 27.4072 7.75864 26.3885 7.20923 25.3999C6.65649 24.4092 6.37629 23.4628 6.37708 22.5813C6.37708 18.9133 6.37708 14.5466 6.37708 11.0969C6.37708 9.67017 6.37708 8.40458 6.37708 7.40566L11.9265 8.72724L22.5 3.9409L33.0722 8.72724L33.8366 8.54511L38.6232 7.40566C38.6232 10.8185 38.6232 17.3958 38.6232 22.5812Z" fill="#002107"/>
<path d="M22.5001 7.89844L13.1805 12.1164L10.4077 11.456V22.3358C10.4077 26.0393 19.4747 31.4083 22.5001 31.8518C25.5256 31.4083 34.5924 26.0393 34.5924 22.3358V11.456L31.8173 12.1164L22.5001 7.89844Z" fill="#00A743"/>
<g clip-path="url(#clip0_585_1830)">
<path d="M27.7778 19.5C27.7778 20.7309 27.1204 21.8405 26.0678 22.6214L25.0795 21.5463L26.0824 19.1072L27.6825 18.6963C27.7451 18.9566 27.7778 19.2253 27.7778 19.5Z" fill="black"/>
<path d="M23.9838 22.1753L24.9728 23.251C24.1983 23.5884 23.3081 23.7805 22.3611 23.7805C21.4141 23.7805 20.5239 23.5884 19.7494 23.251L20.7384 22.1753H23.9838Z" fill="black"/>
<path d="M16.9445 19.5C16.9445 20.7309 17.6019 21.8405 18.6545 22.6214L19.6429 21.5463L18.64 19.1072L17.0398 18.6963C16.9772 18.9566 16.9445 19.2253 16.9445 19.5Z" fill="black"/>
<path d="M19.0584 18.0897L17.458 17.6787C18.2324 16.3794 19.8095 15.4377 21.6841 15.2529V16.5822L19.0584 18.0897Z" fill="black"/>
<path d="M23.0382 16.5822V15.2529C24.9128 15.4377 26.4899 16.3794 27.2643 17.6787L25.6639 18.0897L23.0382 16.5822Z" fill="black"/>
<path d="M19.9733 18.8871L22.3611 17.5161L24.749 18.8871L23.8369 21.1054H20.8854L19.9733 18.8871Z" fill="#FFFCFC"/>
</g>
<defs>
<clipPath id="clip0_585_1830">
<rect width="10.8333" height="8.56098" fill="white" transform="translate(16.9445 15.2197)"/>
</clipPath>
</defs>
</svg>
