<svg width="151" height="151" viewBox="0 0 151 151" fill="none" xmlns="http://www.w3.org/2000/svg">
<path d="M113.544 71.843C119.016 71.843 123.453 76.2798 123.453 81.7523C123.453 87.2249 119.016 91.6617 113.544 91.6617C108.071 91.6617 103.634 87.2249 103.634 81.7523C103.634 76.2798 108.071 71.843 113.544 71.843ZM101.334 96.4984C106.807 96.4984 111.243 100.935 111.243 106.408C111.243 111.88 106.807 116.317 101.334 116.317C95.8614 116.317 91.4246 111.88 91.4246 106.408C91.4246 100.935 95.8614 96.4984 101.334 96.4984ZM85.5262 118.146H74.3781H63.2301C56.4469 118.146 52.2 123.749 52.2 130.768V148.051H59.809V132.774C59.809 132.066 60.3988 131.594 60.9887 131.594C61.6965 131.594 62.1683 132.066 62.1683 132.774V147.992H86.6469V132.774C86.6469 132.066 87.2367 131.594 87.8265 131.594C88.5344 131.594 89.0062 132.184 89.0062 132.774V147.992H96.6152V130.827C96.7332 123.749 92.4273 118.146 85.5262 118.146ZM88.2984 71.843C93.771 71.843 98.2078 76.2798 98.2078 81.7523C98.2078 87.2249 93.771 91.6617 88.2984 91.6617C82.8258 91.6617 78.389 87.2249 78.389 81.7523C78.389 76.2798 82.8258 71.843 88.2984 71.843ZM117.437 106.408C117.437 111.893 121.861 116.317 127.346 116.317C132.832 116.317 137.255 111.893 137.255 106.408C137.255 100.922 132.832 96.4984 127.346 96.4984C121.861 96.4984 117.437 100.922 117.437 106.408ZM116.434 118.146C109.651 118.146 105.404 123.749 105.404 130.768V148.051H113.013V132.774C113.013 132.066 113.603 131.594 114.193 131.594C114.9 131.594 115.372 132.066 115.372 132.774V147.992H139.851V132.774C139.851 132.066 140.441 131.594 141.03 131.594C141.738 131.594 142.21 132.184 142.21 132.774V147.992H149.819V130.827C149.937 123.69 145.631 118.087 138.789 118.087H127.641H116.434V118.146ZM23.4746 96.4984C28.9472 96.4984 33.384 100.935 33.384 106.408C33.384 111.88 28.9472 116.317 23.4746 116.317C18.002 116.317 13.5652 111.88 13.5652 106.408C13.5652 100.935 18.002 96.4984 23.4746 96.4984ZM8.7285 147.992V132.774C8.7285 132.066 9.31834 131.594 9.90819 131.594C10.616 131.594 11.0879 132.066 11.0879 132.774V147.992H35.5664V132.774C35.5664 132.066 36.1562 131.594 36.7461 131.594C37.4539 131.594 37.9258 132.184 37.9258 132.774V147.992H45.5347V130.827C45.6527 123.69 41.3469 118.087 34.5047 118.087H23.3566H12.2086C5.42537 118.087 1.1785 123.69 1.1785 130.709V147.992H8.7285ZM64.4687 106.408C64.4687 111.893 68.8926 116.317 74.3781 116.317C79.8637 116.317 84.2875 111.893 84.2875 106.408C84.2875 100.922 79.8637 96.4984 74.3781 96.4984C68.8926 96.4984 64.4687 100.922 64.4687 106.408ZM36.1562 71.843C41.6288 71.843 46.0656 76.2798 46.0656 81.7523C46.0656 87.2249 41.6288 91.6617 36.1562 91.6617C30.6837 91.6617 26.2469 87.2249 26.2469 81.7523C26.2469 76.2798 30.6837 71.843 36.1562 71.843ZM62.9351 71.843C68.4077 71.843 72.8445 76.2798 72.8445 81.7523C72.8445 87.2249 68.4077 91.6617 62.9351 91.6617C57.4626 91.6617 53.0258 87.2249 53.0258 81.7523C53.0258 76.2798 57.4626 71.843 62.9351 71.843ZM49.6047 96.4984C55.0772 96.4984 59.514 100.935 59.514 106.408C59.514 111.88 55.0772 116.317 49.6047 116.317C44.1321 116.317 39.6953 111.88 39.6953 106.408C39.6953 100.935 44.1321 96.4984 49.6047 96.4984ZM75.5 2.94922C59.2315 2.94922 46.0078 16.1729 46.0078 32.4414C46.0078 48.7099 59.2315 61.9336 75.5 61.9336C91.7685 61.9336 104.992 48.7099 104.992 32.4414C104.992 16.1729 91.7685 2.94922 75.5 2.94922ZM84.3795 13.5092L76.3564 9.41863V7.29401C82.1599 7.48453 87.7092 9.70411 92.0858 13.5098L84.3795 13.5092ZM93.8931 15.2534C96.525 18.0758 98.4278 21.4054 99.5697 25.0843L95.0669 32.9487L88.4388 31.9341L82.413 21.5322L84.8231 15.2215C84.8549 15.2534 93.8931 15.2534 93.8931 15.2534ZM80.4789 22.706L86.2823 32.7906L81.1766 41.6064H69.8239L64.7182 32.7587L70.5217 22.6742H80.4795V22.706H80.4789ZM74.6435 9.41863L66.6205 13.5092H58.8829C63.259 9.67226 68.8088 7.48394 74.6123 7.29342V9.41804H74.6435V9.41863ZM66.1451 15.2534L68.5552 21.5641L62.5618 31.9341L55.9655 32.9487L51.399 25.0206C52.5403 21.3736 54.475 18.0439 57.1387 15.2534H66.1451ZM54.9823 34.6928L55.3946 43.0014L53.27 44.2701C51.304 40.6231 50.2889 36.5638 50.2889 32.4096C50.2889 30.7604 50.4476 29.048 50.828 27.4307L54.9823 34.6928ZM56.1555 44.5869L63.4176 49.2166L67.4132 56.2882C61.9271 54.4491 57.2019 50.7071 54.1258 45.7601L56.1555 44.5869ZM65.4154 49.3121L69.8233 43.8891H81.1448L85.5527 49.3121L81.1448 56.9229C79.2738 57.367 77.4028 57.5888 75.4681 57.6207C73.5334 57.6207 71.6625 57.3989 69.7915 56.9229L65.4154 49.3121ZM83.5868 56.2257L87.5823 49.249L94.8445 44.6193L96.8423 45.7925C93.7663 50.6758 89.0729 54.386 83.5868 56.2257ZM95.5735 43.0014L95.9859 34.6928L100.172 27.4625C100.489 29.0799 100.679 30.7291 100.711 32.4096C100.711 36.5638 99.6966 40.6231 97.73 44.2701L95.5735 43.0014Z" fill="#46C556"/>
</svg>
