<svg width="194" height="186" viewBox="0 0 194 186" fill="none" xmlns="http://www.w3.org/2000/svg">
<path d="M100.326 48.0214H100.329C100.332 48.0241 100.332 48.0241 100.332 48.0241L100.326 48.0214Z" fill="#1A6B51"/>
<path d="M150.441 105.908C154.202 101.513 158.716 94.5916 158.146 87.1098L119.407 49.969C119.407 49.969 112.391 48.3019 104.006 50.0471C102.792 49.2875 101.565 48.5954 100.329 48.0218C94.0506 45.0974 87.7865 44.4344 83.0957 44.4777C82.7948 44.4777 82.5083 44.4911 82.2192 44.4994L75.034 51.3883L76.1548 51.2805C76.2867 51.2696 76.4837 51.2347 76.6126 51.2053C76.7869 51.1649 79.5733 50.5481 83.5337 50.5535C87.0844 50.5535 91.5479 51.0625 95.9804 52.8157C93.469 54.0708 90.9886 55.7296 88.6743 57.9488C75.868 70.227 64.2273 81.3874 64.2273 81.3874L64.2329 81.3928C64.1628 81.46 64.0927 81.5167 64.0223 81.5839C60.7049 84.7619 60.5788 89.8359 63.6403 93.1646C63.7582 93.291 63.8878 93.4262 64.0223 93.5551C67.4661 96.8599 73.0562 96.865 76.5084 93.5551L89.955 80.663C92.272 81.4738 94.553 81.9505 96.7412 82.1873C99.7187 82.5107 102.525 82.3893 105.014 82.0526C111.084 81.2286 113.966 80.356 113.966 80.356L145.66 110.746C145.66 110.746 145.839 110.595 146.112 110.355L150.691 114.745C151.884 115.893 152.466 117.365 152.469 118.868C152.466 120.366 151.882 121.841 150.688 122.989C149.491 124.131 147.958 124.691 146.393 124.693C144.828 124.691 143.292 124.131 142.095 122.989C141.505 122.423 140.688 122.097 139.854 122.1C139.017 122.097 138.202 122.423 137.612 122.989C137.022 123.554 136.685 124.335 136.685 125.138C136.685 125.937 137.022 126.718 137.612 127.287C138.806 128.431 139.39 129.905 139.393 131.407C139.39 132.905 138.806 134.381 137.609 135.525C136.412 136.67 134.876 137.23 133.314 137.235C131.747 137.23 130.213 136.67 129.016 135.525C128.427 134.962 127.609 134.636 126.775 134.639C125.938 134.636 125.123 134.963 124.534 135.525C123.944 136.094 123.607 136.875 123.607 137.677C123.607 138.474 123.944 139.258 124.534 139.826C125.727 140.971 126.311 142.444 126.314 143.942C126.311 145.444 125.727 146.92 124.534 148.062C123.337 149.209 121.801 149.769 120.236 149.772C118.671 149.769 117.135 149.209 115.938 148.062L113.255 145.493C113.252 145.487 113.247 145.482 113.241 145.476C112.655 144.914 111.834 144.587 111.003 144.587C110.165 144.587 109.351 144.914 108.761 145.481C108.171 146.042 107.831 146.828 107.831 147.628C107.831 148.428 108.171 149.209 108.761 149.774C109.955 150.922 110.539 152.398 110.542 153.9C110.536 155.398 109.952 156.873 108.759 158.018C107.565 159.163 106.028 159.723 104.463 159.725C102.896 159.722 101.359 159.163 100.166 158.018L98.2584 156.19L98.9184 155.559C102.351 152.268 102.354 146.933 98.9211 143.642C95.4885 140.351 89.9235 140.351 86.4914 143.642L85.8314 144.275L85.5025 143.963C87.1935 140.793 86.6937 136.831 83.9292 134.181C81.1655 131.531 77.0335 131.052 73.7272 132.673L73.0724 132.046C74.7635 128.878 74.2664 124.916 71.5023 122.267C68.7385 119.617 64.6035 119.137 61.3002 120.758L60.6455 120.131C62.3365 116.964 61.8394 113.002 59.0753 110.352C56.3085 107.702 52.1765 107.223 48.8728 108.844L45.6987 105.801L45.5047 105.628C45.4767 105.607 44.9936 105.208 44.2521 104.497C43.8504 104.112 43.37 103.63 42.8448 103.067L42.8422 103.064L42.7717 102.992L42.7831 103.005C41.1174 101.211 39.0243 98.5989 37.4738 95.5292C36.5103 93.6223 35.7574 91.5593 35.3895 89.3966L30.1761 94.3954C30.6338 95.7261 31.1703 96.9998 31.7717 98.1822C33.6791 101.942 36.1143 104.958 38.0524 107.045L38.0611 107.062L38.1312 107.134L38.1282 107.126C38.7348 107.775 39.2911 108.333 39.7715 108.796C40.5214 109.512 41.0666 109.981 41.297 110.172L44.0638 112.825L38.9569 117.721C35.524 121.012 35.527 126.345 38.9569 129.636C42.3894 132.926 47.951 132.926 51.3865 129.636C47.951 132.926 47.9536 138.262 51.3865 141.553C54.819 144.841 60.3806 144.841 63.8135 141.553C60.3806 144.841 60.3806 150.179 63.8135 153.468C67.2487 156.759 72.8106 156.759 76.2431 153.468L81.347 148.574L78.8049 151.014C75.3698 154.306 75.372 159.638 78.8049 162.929C82.2378 166.22 87.7967 166.22 91.2319 162.929L93.774 160.489L95.6814 162.317C98.0969 164.637 101.294 165.81 104.462 165.805C107.628 165.81 110.824 164.637 113.24 162.317C115.266 160.376 116.443 157.909 116.774 155.375C117.903 155.69 119.069 155.851 120.235 155.851C123.403 155.851 126.597 154.683 129.015 152.361C131.431 150.045 132.656 146.98 132.653 143.947C132.653 143.724 132.631 143.503 132.619 143.282C132.85 143.293 133.083 143.312 133.313 143.312C136.479 143.317 139.675 142.143 142.091 139.824C144.51 137.505 145.732 134.443 145.729 131.408C145.729 131.185 145.712 130.961 145.698 130.74C145.928 130.754 146.159 130.773 146.392 130.773C149.557 130.773 152.755 129.604 155.167 127.288C157.588 124.969 158.81 121.907 158.808 118.869C158.813 115.832 157.591 112.767 155.173 110.45L150.441 105.908Z" fill="#1A6B51"/>
<path d="M52.5031 21.4242L0 71.759L21.7697 92.6339L74.2751 42.2958L52.5031 21.4242ZM26.2499 74.8291C24.1291 76.8653 20.6883 76.8653 18.5672 74.8291C16.4464 72.7983 16.4464 69.4968 18.5672 67.4661C20.6879 65.4299 24.1291 65.4299 26.2499 67.4661C28.3736 69.4968 28.3736 72.7987 26.2499 74.8291Z" fill="#1A6B51"/>
<path d="M141.497 20.1959L119.725 41.0675L172.231 91.4052L194 70.5336L141.497 20.1959ZM167.747 73.6041C165.627 71.5708 165.627 68.2689 167.747 66.2382C169.871 64.202 173.309 64.202 175.433 66.2382C177.554 68.2686 177.554 71.5704 175.433 73.6041C173.309 75.6374 169.871 75.6374 167.747 73.6041Z" fill="#1A6B51"/>
</svg>
