<svg width="168" height="158" viewBox="0 0 168 158" fill="none" xmlns="http://www.w3.org/2000/svg">
<g clip-path="url(#clip0_624_1908)">
<path d="M106.268 64.8107C105.7 63.3047 104.866 61.9173 103.818 60.698V47.726C103.818 44.0204 102.798 40.4697 100.925 37.5473L108.108 25.8442L99.5267 21.185L93.9089 30.3376V16.6626H84.0002V30.3367L78.3817 21.185L69.8005 25.8445L76.9845 37.5467C75.1112 40.4691 74.0911 44.0204 74.0911 47.7257V50.5462C70.6343 47.0372 66.0481 44.5258 60.8794 43.5353V36.8536H65.8338V30.1861C66.0379 30.0136 66.239 29.8374 66.4346 29.6534C69.2421 27.0134 70.7882 23.5029 70.7882 19.7692C70.7882 16.0355 69.2421 12.5249 66.4349 9.8852L55.9251 0L45.4152 9.88459C42.6078 12.5246 41.062 16.0349 41.062 19.7686C41.062 23.5025 42.6081 27.0128 45.4152 29.6525C45.6108 29.8368 45.8119 30.0133 46.0163 30.1855V36.8533H50.9707V63.2569C50.9707 74.5079 59.4948 83.9207 70.7882 86.0852V117.617H64.6529L60.359 158H117.549L113.255 117.617H107.12V98.9795H126.937V64.8107H106.268ZM88.9545 39.9602C91.2934 39.9602 93.9089 43.2813 93.9089 47.726C93.9089 52.1707 91.2934 55.4917 88.9545 55.4917C86.6157 55.4917 84.0002 52.1707 84.0002 47.726C84.0002 43.2813 86.616 39.9602 88.9545 39.9602ZM80.6966 64.8107H92.2571C94.5363 64.8107 96.4555 66.2672 97.0307 68.241C96.1566 72.6243 92.1472 75.5522 86.0631 79.6649C84.3263 80.8388 82.4816 82.087 80.6966 83.4689V64.8107ZM97.2118 83.4297V98.9804V117.618H80.6973V100.534H80.6979C80.6979 95.0471 84.9347 91.9053 91.847 87.2325C93.5831 86.0589 95.4271 84.811 97.2118 83.4297ZM55.9251 24.428C54.6021 24.428 53.3578 23.9432 52.4217 23.0628C51.4859 22.183 50.9707 21.0128 50.9707 19.7682C50.9707 18.5237 51.4859 17.3541 52.422 16.474L55.9251 13.1794L59.4285 16.4743C60.3643 17.3541 60.8794 18.5243 60.8794 19.7686C60.8794 21.0128 60.364 22.183 59.4281 23.0631C58.4923 23.9432 57.2484 24.428 55.9251 24.428ZM70.7882 76.4376C65.021 74.5144 60.8794 69.3322 60.8794 63.2575V53.1838C66.6466 55.1066 70.7882 60.2888 70.7882 66.3638V76.4376ZM71.3086 148.681L73.6206 126.937H104.288L106.6 148.681H71.3086ZM117.029 89.6612H107.121V74.1296H117.029V89.6612Z" fill="#46C556"/>
</g>
<defs>
<clipPath id="clip0_624_1908">
<rect width="168" height="158" fill="white"/>
</clipPath>
</defs>
</svg>
