<svg width="46" height="37" viewBox="0 0 46 37" fill="none" xmlns="http://www.w3.org/2000/svg">
<path d="M3.83335 32.375H42.1667C42.675 32.375 43.1625 32.2126 43.522 31.9235C43.8814 31.6343 44.0834 31.2422 44.0834 30.8333V6.16667C44.0834 5.75779 43.8814 5.36566 43.522 5.07654C43.1625 4.78743 42.675 4.625 42.1667 4.625H3.83335C3.32502 4.625 2.83751 4.78743 2.47807 5.07654C2.11862 5.36566 1.91669 5.75779 1.91669 6.16667V30.8333C1.91669 31.2422 2.11862 31.6343 2.47807 31.9235C2.83751 32.2126 3.32502 32.375 3.83335 32.375ZM40.25 21.5833H36.4167V15.4167H40.25V21.5833ZM24.9167 7.70833H40.25V12.3333H34.5C33.9917 12.3333 33.5042 12.4958 33.1447 12.7849C32.7853 13.074 32.5834 13.4661 32.5834 13.875V23.125C32.5834 23.5339 32.7853 23.926 33.1447 24.2151C33.5042 24.5042 33.9917 24.6667 34.5 24.6667H40.25V29.2917H24.9167V24.4478C26.5604 24.1112 28.0178 23.3438 29.0588 22.2667C30.0998 21.1896 30.6649 19.8643 30.6649 18.5C30.6649 17.1357 30.0998 15.8104 29.0588 14.7333C28.0178 13.6562 26.5604 12.8888 24.9167 12.5523V7.70833ZM26.8334 18.5C26.8334 19.1098 26.6085 19.706 26.1873 20.213C25.7661 20.7201 25.1674 21.1153 24.467 21.3486C23.7665 21.582 22.9958 21.6431 22.2522 21.5241C21.5086 21.4051 20.8255 21.1115 20.2894 20.6802C19.7533 20.249 19.3883 19.6996 19.2403 19.1015C19.0924 18.5034 19.1683 17.8835 19.4585 17.3201C19.7486 16.7567 20.2399 16.2751 20.8703 15.9363C21.5007 15.5975 22.2419 15.4167 23 15.4167C24.0167 15.4167 24.9917 15.7415 25.7106 16.3198C26.4295 16.898 26.8334 17.6822 26.8334 18.5ZM5.75002 15.4167H9.58335V21.5833H5.75002V15.4167ZM5.75002 24.6667H11.5C12.0084 24.6667 12.4959 24.5042 12.8553 24.2151C13.2148 23.926 13.4167 23.5339 13.4167 23.125V13.875C13.4167 13.4661 13.2148 13.074 12.8553 12.7849C12.4959 12.4958 12.0084 12.3333 11.5 12.3333H5.75002V7.70833H21.0834V12.5523C19.4396 12.8888 17.9822 13.6562 16.9412 14.7333C15.9003 15.8104 15.3351 17.1357 15.3351 18.5C15.3351 19.8643 15.9003 21.1896 16.9412 22.2667C17.9822 23.3438 19.4396 24.1112 21.0834 24.4478V29.2917H5.75002V24.6667Z" fill="#1A6B51"/>
</svg>
