<svg width="33" height="32" viewBox="0 0 33 32" fill="none" xmlns="http://www.w3.org/2000/svg">
<path d="M16.5 10L22.3967 14.1458M16.5 10L10.6035 14.1458M16.5 10V5.5M22.3967 14.1458L20.1444 20.8542M22.3967 14.1458L26.575 12.25M10.6035 14.1458L12.8558 20.8542M10.6035 14.1458L6.425 12.25M16.5 5.5L11.2677 1.87613M16.5 5.5L21.7323 1.87613M20.1444 20.8542H12.8558M20.1444 20.8542L22.7 24.25M26.575 12.25L31.9234 17.5M26.575 12.25L28.125 6.07816M12.8558 20.8542L10.3 24.25M22.7 24.25L29.9264 23.5M22.7 24.25L18.825 30.8325M10.3 24.25L3.07362 23.5M10.3 24.25L14.175 30.8325M6.425 12.25L1.07654 17.5M6.425 12.25L4.875 6.07816M32 16C32 24.2842 25.0603 31 16.5 31C7.93958 31 1 24.2842 1 16C1 7.71572 7.93958 1 16.5 1C25.0603 1 32 7.71572 32 16Z" stroke="#1A6B51" stroke-width="2" stroke-linecap="round" stroke-linejoin="round"/>
</svg>
