<svg width="151" height="145" viewBox="0 0 151 145" fill="none" xmlns="http://www.w3.org/2000/svg">
<g clip-path="url(#clip0_525_3574)">
<path d="M150.949 90.4273C150.462 91.1314 149.946 91.83 149.38 92.5129C134.428 110.498 110.027 114.113 75.5 114.113C40.9773 114.113 16.577 110.498 1.62474 92.5148C1.05908 91.8301 0.542668 91.1311 0.0507386 90.4271C-0.244478 101.491 0.601652 111.4 6.46912 118.879C19.6164 135.646 41.6905 139.398 75.5 139.398C109.314 139.398 131.388 135.646 144.54 118.879C150.403 111.4 151.244 101.491 150.949 90.4273Z" fill="#1A6B51"/>
<path d="M75.5 108.162C109.309 108.162 131.388 104.623 144.535 88.8029C153.767 77.6968 150.172 61.8108 145.007 48.0905C139.435 33.2956 135.436 23.6347 123.814 15.6034C112.192 7.57173 93.4669 5.60205 75.5 5.60205C57.5375 5.60205 38.8132 7.57173 27.1859 15.6031C15.5686 23.6347 11.5698 33.2953 5.99723 48.0902C0.833149 61.8108 -2.76254 77.6965 6.4694 88.8026C19.6164 104.623 41.6904 108.162 75.5 108.162ZM59.9921 83.3263L61.1724 74.2462H89.8273L91.0126 83.3263H59.9921ZM63.2675 22.3167H87.7319L88.6859 29.6539H62.3132L63.2675 22.3167ZM37.6919 26.3716C38.582 23.7763 41.1053 22.0219 43.9484 22.0219H58.5216L56.9329 34.2166H94.0671L93.7327 31.6522L92.4783 22.0222H107.052C109.9 22.0222 112.423 23.7766 113.313 26.3719L120.273 46.6951H90.3785C90.029 45.8543 89.5669 45.0752 88.9912 44.3949C87.4762 42.6025 85.3663 41.3865 83.04 40.5833C80.7086 39.783 78.1216 39.3955 75.5 39.3933C72.0128 39.4004 68.5749 40.0758 65.7219 41.5303C64.3006 42.2627 63.0219 43.2001 62.0135 44.3949C61.4381 45.0752 60.9757 45.8543 60.6265 46.6951H30.732L37.6919 26.3716ZM85.6418 51.2547C85.0171 52.0695 83.7336 52.9502 81.9482 53.5667C80.158 54.1994 77.9004 54.5749 75.5 54.5727C72.303 54.5798 69.3568 53.8947 67.4289 52.8675C66.4748 52.3646 65.7811 51.793 65.3632 51.2547H85.6418ZM66.2778 46.6948C67.0699 45.9862 68.1865 45.3465 69.5635 44.8764C71.2947 44.2811 73.3804 43.9531 75.5003 43.9554C78.3283 43.948 81.0973 44.5456 83.0403 45.5515C83.7091 45.8965 84.2748 46.2839 84.7322 46.6945L66.2778 46.6948ZM21.0182 75.0729L29.1731 51.2547H60.2086C60.4543 52.2397 60.912 53.1581 61.5266 53.9445C62.9384 55.7604 65.0285 57.0028 67.4239 57.8505C69.834 58.6936 72.5932 59.1306 75.5 59.1325C79.3806 59.1257 82.9957 58.3628 85.8582 56.8635C87.2895 56.1099 88.5388 55.1583 89.4781 53.9445C90.088 53.1581 90.5504 52.2397 90.7964 51.2547H121.832L129.987 75.0729C130.646 77.0024 130.301 79.1159 129.062 80.7571C127.827 82.4008 125.845 83.3739 123.73 83.3739H95.8036L94.0229 69.6864H56.9819L55.2014 83.3739H27.2747C25.1645 83.3739 23.1776 82.4008 21.9381 80.7571C20.6985 79.1159 20.3593 77.0024 21.0182 75.0729Z" fill="#1A6B51"/>
</g>
<defs>
<clipPath id="clip0_525_3574">
<rect width="151" height="145" fill="white"/>
</clipPath>
</defs>
</svg>
