<svg width="151" height="145" viewBox="0 0 151 145" fill="none" xmlns="http://www.w3.org/2000/svg">
<path d="M111.957 17.2187C79.8271 -2.40157 37.3017 6.58389 16.9733 37.2831C16.9686 37.2922 16.9639 37.3012 16.9544 37.3103C-3.37393 68.0095 6.19097 108.8 38.3209 128.416C70.4509 148.031 112.976 139.05 133.305 108.351C133.309 108.342 133.314 108.333 133.324 108.324C153.652 77.6248 144.087 36.8345 111.957 17.2187ZM47.4093 102.8L24.7026 106.258L13.0143 77.6837L27.1186 61.0722L47.8858 74.1448L47.4093 102.8ZM67.681 10.0684L58.5785 23.8208L31.7902 36.6578L23.9335 30.817C29.7611 21.1836 51.5193 10.7209 55.6435 11.1287C61.2777 8.42812 67.9075 9.71952 67.681 10.0684ZM115.996 113.123L99.7213 130.745L72.7961 133.858L70.366 117.106L97.1968 103.489L115.996 113.123ZM98.0367 78.0372L72.6923 63.6641L78.4492 35.2441L106.564 35.3392L120.102 61.0586L98.0414 78.0326L98.0367 78.0372ZM121.201 26.8748L111.339 24.36L100.344 14.1466C100.344 14.1466 119.564 22.7106 121.201 26.8748ZM133.876 97.372L135.371 71.8701L140.194 63.1747C142.152 64.3709 141.85 91.3183 136.164 99.7101C132.394 101.885 133.876 97.372 133.876 97.372Z" fill="#46C556"/>
</svg>
