<svg width="39" height="42" viewBox="0 0 39 42" fill="none" xmlns="http://www.w3.org/2000/svg">
<path fill-rule="evenodd" clip-rule="evenodd" d="M12.7578 29.3641L22 42L31.2422 29.3641C33.0274 26.9235 34 23.8909 34 20.7652V20.125C34 12.8763 28.6274 7 22 7C15.3726 7 10 12.8763 10 20.125V20.7652C10 23.8909 10.9726 26.9235 12.7578 29.3641ZM22 24.5C24.2091 24.5 26 22.5412 26 20.125C26 17.7088 24.2091 15.75 22 15.75C19.7909 15.75 18 17.7088 18 20.125C18 22.5412 19.7909 24.5 22 24.5Z" fill="#46C556"/>
</svg>
