<svg width="47" height="44" viewBox="0 0 47 44" fill="none" xmlns="http://www.w3.org/2000/svg">
<path d="M23.49 40.5996C23.8047 40.5996 24.3161 40.4891 24.8276 40.2312C36.0005 34.3568 39.8561 31.8708 39.8561 25.1492V11.0616C39.8561 9.12803 38.9511 8.52036 37.2988 7.85737C34.9777 6.95506 27.4634 4.43213 25.1423 3.67714C24.6112 3.51135 24.0604 3.40088 23.49 3.40088C22.9392 3.40088 22.3884 3.5482 21.8573 3.67714C19.5362 4.34004 12.0219 6.97344 9.70077 7.85737C8.04847 8.50189 7.14355 9.12803 7.14355 11.0616V25.1492C7.14355 31.8708 11.0187 34.3384 22.1721 40.2312C22.6835 40.4891 23.1753 40.5996 23.49 40.5996ZM23.49 37.248V6.34731C23.726 6.34731 23.9621 6.40254 24.2768 6.51309C27.3061 7.52588 33.0107 9.56999 36.0595 10.546C36.5907 10.7301 36.7284 10.988 36.7284 11.6141V24.4678C36.7284 30.1398 33.7974 31.6314 24.7292 36.8061C24.1391 37.1375 23.8047 37.248 23.49 37.248Z" fill="#46C556"/>
<path d="M23.49 40.5991C23.8047 40.5991 24.3161 40.4886 24.8276 40.2308C36.0005 34.3564 39.8561 31.8703 39.8561 25.1487V11.0611C39.8561 9.12754 38.9511 8.51987 37.2988 7.85688C34.9777 6.95457 27.4634 4.43164 25.1423 3.67665C24.6112 3.51086 24.0604 3.40039 23.49 3.40039C22.9392 3.40039 22.3884 3.54771 21.8573 3.67665C19.5362 4.33955 12.0219 6.97295 9.70077 7.85688C8.04847 8.50141 7.14355 9.12754 7.14355 11.0611V25.1487C7.14355 31.8703 11.0187 34.3379 22.1721 40.2308C22.6835 40.4886 23.1753 40.5991 23.49 40.5991ZM23.49 37.2476V6.34682C23.726 6.34682 23.9621 6.40205 24.2768 6.5126C27.3061 7.52539 33.0107 9.5695 36.0595 10.5455C36.5907 10.7296 36.7284 10.9875 36.7284 11.6136V24.4674C36.7284 30.1393 33.7974 31.6309 24.7292 36.8056C24.1391 37.137 23.8047 37.2476 23.49 37.2476Z" fill="#46C556"/>
</svg>
